<?xml version="1.0" encoding="utf-8"?>
<!-- Generator: Adobe Illustrator 23.1.0, SVG Export Plug-In . SVG Version: 6.00 Build 0)  -->
<svg version="1.0" id="Layer_1" xmlns="http://www.w3.org/2000/svg" xmlns:xlink="http://www.w3.org/1999/xlink" x="0px" y="0px"
	 width="170px" height="36px" viewBox="0 0 170 36" style="enable-background:new 0 0 170 36;" xml:space="preserve">
<style type="text/css">
	.st0{fill-rule:evenodd;clip-rule:evenodd;fill:#FFFFFF;}
	.st1{fill:#FFFFFF;}
</style>
<g id="logo">
	<g id="logo_1_">
		<g id="flex">
			<path class="st0" d="M4,18.1C4,27.9,12.1,36,22.1,36C31.9,36,40,27.9,40,18.1C40,8.1,31.9,0,22.1,0C12,0,4,8.1,4,18.1z
				 M37.7,18.1c0,8.6-7,15.6-15.6,15.6c-8.8,0-15.8-7-15.8-15.6c0-8.8,7-15.8,15.8-15.8C30.7,2.3,37.7,9.3,37.7,18.1z"/>
			<path class="st0" d="M20.4,13.6c0.3-0.2,0.6-0.4,1-0.4c0.4,0,0.7,0.1,1,0.4l4.2,3.4c0.4,0.3,0.9,0.4,1.3,0.2l2-0.8
				c0.2-0.1,0.4,0,0.5,0.1c0.6,0.4,2.1,1.5,2.6,2c1.4,1.1,2.4,1.8,2.4,1.8s0-0.4,0-0.8c0.4-8.8-6.2-15.1-13.6-15
				C14.3,4.6,8.3,10.6,8.5,18.8c0,0.7,0.1,1.4,0.1,1.4l1.9-1.4l2.3-1.7c0.3-0.2,0.7-0.2,1.1,0l0.9,0.6c0.2,0.1,0.5,0.1,0.7,0
				L20.4,13.6z"/>
			<path class="st0" d="M20.6,34.8c2.2,0.3,4-0.1,4.6-0.3c0.3-0.1,1.4-0.3,1.6-0.4c0.8-0.3,2.1-0.9,2.9-1.3c1.1-0.7,1.9-1.3,2.9-2.3
				c2.4-2.1,4-6.1,4-6.5c0-0.1-4.4-3.4-5.7-4.4c-0.2-0.2-0.5-0.1-0.7,0.1s-0.2,0.4-0.1,0.6c0.4,0.7,1.4,2.1,1.4,2.2
				c0.2,0.5-0.1,0.8-0.3,0.7c-0.2-0.2-5.7-3.9-5.7-3.9L22.2,17c-0.4-0.3-1,0-1,0.5c0,0-0.1,1.6-0.1,2.7c0,0.4,0,0.9-0.6,1.1
				c-0.3,0.1-0.9,0.1-0.9,0.1L14.1,21c-0.4,0-0.6,0.4-0.3,0.7c0,0,7.3,5,7.3,5.4c0,0.9-2.6-0.5-4.7-1.5c-2.5-1.2-5.3-2.3-6-2.6
				c-0.1,0-0.2,0-0.3,0c-0.6,0.3-2.8,1.6-2.8,1.7c0.7,2.1,2.6,5.2,5.5,7.2c1.1,0.8,2.5,1.6,3.8,2.1C18,34.4,19.6,34.8,20.6,34.8z"/>
		</g>
		<g>
			<path class="st1" d="M48.3,3.9h6.3c1.2,0,2.2,0.1,2.8,0.2s1.2,0.3,1.6,0.6C59.5,5,59.9,5.5,60.2,6s0.5,1.2,0.5,1.8
				c0,0.7-0.2,1.4-0.6,2c-0.4,0.6-0.9,1.1-1.6,1.4c1,0.3,1.7,0.8,2.2,1.4s0.8,1.5,0.8,2.4c0,0.7-0.2,1.4-0.5,2.1s-0.8,1.2-1.4,1.6
				s-1.3,0.7-2.1,0.7c-0.5,0.1-1.8,0.1-3.8,0.1h-5.3V3.9H48.3z M51.5,6.6v3.6h2.1c1.2,0,2,0,2.3-0.1c0.5-0.1,1-0.3,1.3-0.6
				s0.5-0.7,0.5-1.2s-0.1-0.9-0.4-1.2s-0.7-0.5-1.2-0.6c-0.3,0-1.2-0.1-2.7-0.1h-1.9V6.6z M51.5,12.8V17h2.9c1.1,0,1.9,0,2.2-0.1
				c0.5-0.1,0.9-0.3,1.1-0.6c0.3-0.3,0.4-0.8,0.4-1.3s-0.1-0.9-0.3-1.2s-0.6-0.6-1-0.7s-1.4-0.2-2.8-0.2L51.5,12.8L51.5,12.8z"/>
			<path class="st1" d="M66.4,11.7l-2.7-0.5c0.3-1.1,0.8-1.9,1.6-2.4C66,8.3,67.1,8,68.6,8c1.3,0,2.3,0.2,3,0.5s1.1,0.7,1.4,1.2
				s0.4,1.4,0.4,2.7v3.5c0,1,0,1.7,0.1,2.2s0.3,1,0.5,1.5h-3c-0.1-0.2-0.2-0.5-0.3-0.9c-0.1-0.2-0.1-0.3-0.1-0.4
				c-0.5,0.5-1.1,0.9-1.6,1.1c-0.6,0.2-1.2,0.4-1.9,0.4c-1.2,0-2.1-0.3-2.8-1c-0.7-0.6-1-1.4-1-2.4c0-0.6,0.2-1.2,0.5-1.7
				c0.3-0.5,0.7-0.9,1.3-1.2c0.6-0.3,1.3-0.5,2.4-0.7c1.4-0.3,2.4-0.5,2.9-0.7v-0.3c0-0.6-0.1-1-0.4-1.2s-0.8-0.4-1.6-0.4
				c-0.5,0-1,0.1-1.3,0.3S66.6,11.2,66.4,11.7z M70.4,14.2c-0.4,0.1-1,0.3-1.8,0.5s-1.4,0.4-1.6,0.5c-0.4,0.3-0.6,0.6-0.6,1.1
				c0,0.4,0.2,0.8,0.5,1.1s0.7,0.5,1.2,0.5s1.1-0.2,1.5-0.5s0.6-0.6,0.7-1c0.1-0.3,0.1-0.7,0.1-1.5C70.4,14.9,70.4,14.2,70.4,14.2z"
				/>
			<path class="st1" d="M79.2,19.6h-3V8.3H79v1.6c0.5-0.8,0.9-1.3,1.3-1.5S81.1,8,81.5,8c0.7,0,1.3,0.2,2,0.6l-0.9,2.6
				c-0.5-0.3-1-0.5-1.4-0.5s-0.8,0.1-1.1,0.3s-0.5,0.7-0.7,1.3s-0.3,1.9-0.3,3.8v3.5H79.2z"/>
			<path class="st1" d="M91.4,16l3,0.5c-0.4,1.1-1,1.9-1.8,2.5s-1.9,0.9-3.1,0.9c-2,0-3.4-0.6-4.4-1.9c-0.7-1-1.1-2.3-1.1-3.9
				c0-1.9,0.5-3.4,1.5-4.4S87.6,8,89.1,8c1.7,0,3,0.6,4,1.7s1.4,2.8,1.4,5.1H87c0,0.9,0.3,1.6,0.7,2.1c0.5,0.5,1,0.7,1.7,0.7
				c0.5,0,0.9-0.1,1.2-0.4C91,17,91.2,16.6,91.4,16z M91.6,13c0-0.9-0.2-1.5-0.7-2c-0.4-0.5-0.9-0.7-1.6-0.7s-1.2,0.2-1.6,0.7
				s-0.6,1.1-0.6,1.9h4.5V13z"/>
			<path class="st1" d="M95.7,8.3h1.7V7.4c0-1,0.1-1.7,0.3-2.1s0.6-0.9,1.1-1.1c0.5-0.3,1.2-0.4,2.1-0.4s1.7,0.1,2.5,0.4L103,6.3
				C102.5,6,102,6,101.6,6c-0.4,0-0.7,0.1-0.9,0.3c-0.2,0.2-0.3,0.6-0.3,1.2v0.8h2.2v2.4h-2.2v9h-3v-9h-1.7V8.3z"/>
			<path class="st1" d="M103.6,13.8c0-1,0.2-2,0.7-2.9c0.5-0.9,1.2-1.6,2.1-2.1s1.9-0.7,3-0.7c1.7,0,3.1,0.6,4.2,1.7
				s1.6,2.5,1.6,4.2s-0.6,3.1-1.7,4.3S111,20,109.3,20c-1,0-2-0.2-3-0.7c-0.9-0.5-1.7-1.2-2.2-2.1C103.8,16.2,103.6,15.1,103.6,13.8
				z M106.7,13.9c0,1.1,0.3,2,0.8,2.6s1.2,0.9,2,0.9s1.4-0.3,2-0.9c0.5-0.6,0.8-1.5,0.8-2.6s-0.3-2-0.8-2.6s-1.2-0.9-2-0.9
				s-1.4,0.3-2,0.9C106.9,11.9,106.7,12.8,106.7,13.9z"/>
			<path class="st1" d="M117,13.8c0-1,0.2-2,0.7-2.9c0.5-0.9,1.2-1.6,2.1-2.1s1.9-0.7,3-0.7c1.7,0,3.1,0.6,4.2,1.7s1.6,2.5,1.6,4.2
				s-0.6,3.1-1.7,4.3s-2.5,1.7-4.2,1.7c-1,0-2-0.2-3-0.7c-0.9-0.5-1.7-1.2-2.2-2.1C117.2,16.2,117,15.1,117,13.8z M120,13.9
				c0,1.1,0.3,2,0.8,2.6s1.2,0.9,2,0.9s1.4-0.3,2-0.9c0.5-0.6,0.8-1.5,0.8-2.6s-0.3-2-0.8-2.6s-1.2-0.9-2-0.9s-1.4,0.3-2,0.9
				C120.3,11.9,120,12.8,120,13.9z"/>
			<path class="st1" d="M136.2,8.3v2.4h-2.1v4.6c0,0.9,0,1.5,0.1,1.6s0.1,0.3,0.3,0.4c0.1,0.1,0.3,0.2,0.5,0.2
				c0.3,0,0.7-0.1,1.2-0.3l0.3,2.3c-0.7,0.3-1.5,0.4-2.4,0.4c-0.5,0-1-0.1-1.5-0.3c-0.4-0.2-0.8-0.4-1-0.7c-0.2-0.3-0.3-0.7-0.4-1.2
				c-0.1-0.3-0.1-1.1-0.1-2.1v-4.9h-1.3V8.3h1.4V6l3-1.8v4h2V8.3z"/>
		</g>
		<g>
			<path class="st1" d="M48,33.7V22.3h1.6l6,9v-9h1.5v11.5h-1.6l-6-9v9L48,33.7L48,33.7z"/>
			<path class="st1" d="M62,29.6c0-1.5,0.4-2.7,1.3-3.4c0.7-0.6,1.6-0.9,2.6-0.9c1.1,0,2.1,0.4,2.8,1.1c0.7,0.7,1.1,1.8,1.1,3.1
				c0,1.1-0.2,1.9-0.5,2.5s-0.8,1.1-1.4,1.4c-0.6,0.3-1.3,0.5-2,0.5c-1.2,0-2.1-0.4-2.8-1.1C62.4,32.1,62,31,62,29.6z M63.5,29.6
				c0,1.1,0.2,1.9,0.7,2.4c0.5,0.5,1,0.8,1.8,0.8c0.7,0,1.3-0.3,1.7-0.8c0.5-0.5,0.7-1.3,0.7-2.4c0-1-0.2-1.8-0.7-2.3
				s-1-0.8-1.7-0.8s-1.3,0.3-1.8,0.8C63.7,27.7,63.5,28.5,63.5,29.6z"/>
			<path class="st1" d="M74.7,33.7v-8.3H76v1.2c0.3-0.4,0.6-0.7,1-1s0.9-0.4,1.5-0.4s1.1,0.1,1.5,0.4s0.7,0.6,0.8,1.1
				c0.7-1,1.5-1.5,2.6-1.5c0.8,0,1.5,0.2,1.9,0.7S86,27.1,86,28v5.7h-1.4v-5.2c0-0.6,0-1-0.1-1.2s-0.3-0.4-0.5-0.6s-0.5-0.2-0.8-0.2
				c-0.6,0-1.1,0.2-1.5,0.6s-0.6,1-0.6,1.9v4.8h-1.4v-5.4c0-0.6-0.1-1.1-0.3-1.4s-0.6-0.5-1.1-0.5c-0.4,0-0.8,0.1-1.1,0.3
				s-0.6,0.5-0.7,0.9s-0.2,1-0.2,1.7v4.3C76.3,33.7,74.7,33.7,74.7,33.7z"/>
			<path class="st1" d="M96.6,32.7c-0.5,0.4-1,0.8-1.5,0.9s-1,0.3-1.6,0.3c-0.9,0-1.6-0.2-2.1-0.7s-0.7-1-0.7-1.7
				c0-0.4,0.1-0.8,0.3-1.1s0.4-0.6,0.7-0.8s0.6-0.4,1-0.5c0.3-0.1,0.7-0.1,1.2-0.2c1.1-0.1,2-0.3,2.5-0.5c0-0.2,0-0.3,0-0.4
				c0-0.6-0.1-1-0.4-1.2c-0.4-0.3-0.9-0.5-1.6-0.5s-1.1,0.1-1.5,0.3s-0.5,0.6-0.7,1.2l-1.4-0.2c0.1-0.6,0.3-1.1,0.6-1.4
				s0.7-0.6,1.2-0.8s1.2-0.3,1.9-0.3c0.7,0,1.3,0.1,1.7,0.2s0.8,0.4,1,0.6s0.4,0.6,0.4,1c0,0.2,0.1,0.7,0.1,1.3v1.9
				c0,1.3,0,2.1,0.1,2.5s0.2,0.7,0.4,1h-1.5C96.7,33.4,96.6,33.1,96.6,32.7z M96.5,29.6c-0.5,0.2-1.3,0.4-2.3,0.5
				c-0.6,0.1-1,0.2-1.2,0.3s-0.4,0.3-0.6,0.5s-0.2,0.4-0.2,0.7c0,0.4,0.1,0.7,0.4,0.9s0.7,0.4,1.2,0.4s1-0.1,1.4-0.4s0.7-0.6,0.9-1
				c0.2-0.3,0.2-0.8,0.2-1.4v-0.5H96.5z"/>
			<path class="st1" d="M108.7,33.7v-1c-0.5,0.8-1.3,1.2-2.3,1.2c-0.7,0-1.3-0.2-1.8-0.5s-1-0.9-1.3-1.5s-0.5-1.4-0.5-2.3
				c0-0.8,0.1-1.6,0.4-2.3s0.7-1.2,1.2-1.6s1.2-0.5,1.9-0.5c0.5,0,0.9,0.1,1.3,0.3s0.7,0.5,1,0.8v-4.1h1.4v11.5H108.7z M104.2,29.6
				c0,1.1,0.2,1.9,0.7,2.4s1,0.8,1.6,0.8s1.1-0.3,1.6-0.8s0.6-1.3,0.6-2.3c0-1.1-0.2-2-0.7-2.5s-1-0.8-1.6-0.8s-1.1,0.3-1.6,0.8
				S104.2,28.5,104.2,29.6z"/>
		</g>
	</g>
</g>
</svg>
